<mxfile host="app.diagrams.net" agent="Mozilla/5.0 (Windows NT 10.0; Win64; x64) AppleWebKit/537.36 (KHTML, like Gecko) Chrome/137.0.0.0 Safari/537.36" version="27.2.0">
  <diagram name="페이지-1" id="m6DqBl6Ovqt11QRuUK9R">
    <mxGraphModel dx="983" dy="536" grid="1" gridSize="10" guides="1" tooltips="1" connect="1" arrows="1" fold="1" page="1" pageScale="1" pageWidth="827" pageHeight="1169" math="0" shadow="0">
      <root>
        <mxCell id="0" />
        <mxCell id="1" parent="0" />
        <mxCell id="fsGFzsNiL9sgcAbK3XRF-6" value="Box{&lt;div&gt;&lt;span style=&quot;background-color: transparent; color: light-dark(rgb(0, 0, 0), rgb(255, 255, 255));&quot;&gt;&lt;span style=&quot;white-space: pre;&quot;&gt;&#x9;&lt;/span&gt;&lt;br&gt;&lt;/span&gt;&lt;/div&gt;&lt;div&gt;&lt;span style=&quot;white-space: pre;&quot;&gt;&#x9;&lt;/span&gt;private int width;&lt;br&gt;&lt;/div&gt;&lt;div&gt;&lt;span style=&quot;white-space: pre;&quot;&gt;&#x9;&lt;/span&gt;&lt;span style=&quot;white-space: pre;&quot;&gt;&#x9;&lt;/span&gt;&lt;br&gt;&lt;/div&gt;&lt;div&gt;&lt;span style=&quot;white-space: pre;&quot;&gt;&#x9;&lt;span style=&quot;white-space: pre;&quot;&gt;&#x9;&lt;/span&gt;private int depth;&lt;/span&gt;&lt;br&gt;&lt;/div&gt;&lt;div&gt;&lt;span style=&quot;white-space: pre;&quot;&gt;&#x9;&lt;/span&gt;&lt;span style=&quot;white-space: pre;&quot;&gt;&#x9;&lt;/span&gt;private int height;&lt;br&gt;&lt;/div&gt;&lt;div&gt;&lt;br&gt;&lt;/div&gt;&lt;div&gt;&lt;span style=&quot;white-space: pre;&quot;&gt;&#x9;&lt;/span&gt;&lt;span style=&quot;white-space: pre;&quot;&gt;&#x9;&lt;/span&gt;void value() {}&lt;/div&gt;&lt;div&gt;&lt;span style=&quot;white-space: pre;&quot;&gt;&#x9;&lt;/span&gt;&lt;span style=&quot;white-space: pre;&quot;&gt;&#x9;&lt;/span&gt;private int cal() {}&lt;br&gt;&lt;/div&gt;&lt;div&gt;&lt;span style=&quot;background-color: transparent; color: light-dark(rgb(0, 0, 0), rgb(255, 255, 255));&quot;&gt;}&lt;/span&gt;&lt;/div&gt;" style="text;html=1;align=left;verticalAlign=middle;resizable=0;points=[];autosize=1;strokeColor=none;fillColor=none;" vertex="1" parent="1">
          <mxGeometry x="410" y="90" width="170" height="160" as="geometry" />
        </mxCell>
        <mxCell id="fsGFzsNiL9sgcAbK3XRF-7" value="클래스 이름" style="text;html=1;align=center;verticalAlign=middle;resizable=0;points=[];autosize=1;strokeColor=none;fillColor=none;" vertex="1" parent="1">
          <mxGeometry x="30" y="70" width="80" height="30" as="geometry" />
        </mxCell>
        <mxCell id="fsGFzsNiL9sgcAbK3XRF-8" value="속성" style="text;html=1;align=center;verticalAlign=middle;resizable=0;points=[];autosize=1;strokeColor=none;fillColor=none;" vertex="1" parent="1">
          <mxGeometry x="45" y="155" width="50" height="30" as="geometry" />
        </mxCell>
        <mxCell id="fsGFzsNiL9sgcAbK3XRF-9" value="" style="endArrow=classic;html=1;rounded=0;exitX=0.958;exitY=0.49;exitDx=0;exitDy=0;exitPerimeter=0;entryX=0.5;entryY=0;entryDx=0;entryDy=0;" edge="1" parent="1" source="fsGFzsNiL9sgcAbK3XRF-7" target="fsGFzsNiL9sgcAbK3XRF-2">
          <mxGeometry width="50" height="50" relative="1" as="geometry">
            <mxPoint x="350" y="280" as="sourcePoint" />
            <mxPoint x="400" y="230" as="targetPoint" />
            <Array as="points">
              <mxPoint x="250" y="85" />
            </Array>
          </mxGeometry>
        </mxCell>
        <mxCell id="fsGFzsNiL9sgcAbK3XRF-10" value="" style="endArrow=classic;html=1;rounded=0;exitX=0.985;exitY=0.53;exitDx=0;exitDy=0;exitPerimeter=0;" edge="1" parent="1" source="fsGFzsNiL9sgcAbK3XRF-8">
          <mxGeometry width="50" height="50" relative="1" as="geometry">
            <mxPoint x="350" y="280" as="sourcePoint" />
            <mxPoint x="180" y="170" as="targetPoint" />
          </mxGeometry>
        </mxCell>
        <mxCell id="fsGFzsNiL9sgcAbK3XRF-12" value="메서드" style="text;html=1;align=center;verticalAlign=middle;resizable=0;points=[];autosize=1;strokeColor=none;fillColor=none;" vertex="1" parent="1">
          <mxGeometry x="40" y="260" width="60" height="30" as="geometry" />
        </mxCell>
        <mxCell id="fsGFzsNiL9sgcAbK3XRF-14" value="" style="endArrow=classic;html=1;rounded=0;" edge="1" parent="1">
          <mxGeometry width="50" height="50" relative="1" as="geometry">
            <mxPoint x="97" y="270" as="sourcePoint" />
            <mxPoint x="180" y="270" as="targetPoint" />
          </mxGeometry>
        </mxCell>
        <mxCell id="fsGFzsNiL9sgcAbK3XRF-17" value="메서드에서&lt;div&gt;+는 public&lt;/div&gt;&lt;div&gt;-는 private&lt;/div&gt;&lt;div&gt;# 은 protected&lt;/div&gt;" style="text;html=1;align=left;verticalAlign=middle;resizable=0;points=[];autosize=1;strokeColor=none;fillColor=none;" vertex="1" parent="1">
          <mxGeometry x="95" y="280" width="100" height="70" as="geometry" />
        </mxCell>
        <mxCell id="fsGFzsNiL9sgcAbK3XRF-18" value="" style="group" vertex="1" connectable="0" parent="1">
          <mxGeometry x="180" y="110" width="140" height="210" as="geometry" />
        </mxCell>
        <mxCell id="fsGFzsNiL9sgcAbK3XRF-2" value="List" style="swimlane;fontStyle=0;childLayout=stackLayout;horizontal=1;startSize=30;horizontalStack=0;resizeParent=1;resizeParentMax=0;resizeLast=0;collapsible=1;marginBottom=0;whiteSpace=wrap;html=1;" vertex="1" parent="fsGFzsNiL9sgcAbK3XRF-18">
          <mxGeometry width="140" height="120" as="geometry" />
        </mxCell>
        <mxCell id="fsGFzsNiL9sgcAbK3XRF-3" value="Item 1" style="text;strokeColor=none;fillColor=none;align=left;verticalAlign=middle;spacingLeft=4;spacingRight=4;overflow=hidden;points=[[0,0.5],[1,0.5]];portConstraint=eastwest;rotatable=0;whiteSpace=wrap;html=1;" vertex="1" parent="fsGFzsNiL9sgcAbK3XRF-2">
          <mxGeometry y="30" width="140" height="30" as="geometry" />
        </mxCell>
        <mxCell id="fsGFzsNiL9sgcAbK3XRF-4" value="Item 2" style="text;strokeColor=none;fillColor=none;align=left;verticalAlign=middle;spacingLeft=4;spacingRight=4;overflow=hidden;points=[[0,0.5],[1,0.5]];portConstraint=eastwest;rotatable=0;whiteSpace=wrap;html=1;" vertex="1" parent="fsGFzsNiL9sgcAbK3XRF-2">
          <mxGeometry y="60" width="140" height="30" as="geometry" />
        </mxCell>
        <mxCell id="fsGFzsNiL9sgcAbK3XRF-5" value="Item 3" style="text;strokeColor=none;fillColor=none;align=left;verticalAlign=middle;spacingLeft=4;spacingRight=4;overflow=hidden;points=[[0,0.5],[1,0.5]];portConstraint=eastwest;rotatable=0;whiteSpace=wrap;html=1;" vertex="1" parent="fsGFzsNiL9sgcAbK3XRF-2">
          <mxGeometry y="90" width="140" height="30" as="geometry" />
        </mxCell>
        <mxCell id="fsGFzsNiL9sgcAbK3XRF-13" value="" style="swimlane;startSize=0;" vertex="1" parent="fsGFzsNiL9sgcAbK3XRF-18">
          <mxGeometry y="120" width="140" height="90" as="geometry" />
        </mxCell>
        <mxCell id="fsGFzsNiL9sgcAbK3XRF-16" value="+value&lt;div&gt;- cal&lt;/div&gt;" style="text;html=1;align=left;verticalAlign=middle;resizable=0;points=[];autosize=1;strokeColor=none;fillColor=none;" vertex="1" parent="fsGFzsNiL9sgcAbK3XRF-13">
          <mxGeometry y="10" width="60" height="40" as="geometry" />
        </mxCell>
        <mxCell id="fsGFzsNiL9sgcAbK3XRF-19" value="" style="group" vertex="1" connectable="0" parent="1">
          <mxGeometry x="380" y="410" width="140" height="210" as="geometry" />
        </mxCell>
        <mxCell id="fsGFzsNiL9sgcAbK3XRF-20" value="Account" style="swimlane;fontStyle=0;childLayout=stackLayout;horizontal=1;startSize=30;horizontalStack=0;resizeParent=1;resizeParentMax=0;resizeLast=0;collapsible=1;marginBottom=0;whiteSpace=wrap;html=1;" vertex="1" parent="fsGFzsNiL9sgcAbK3XRF-19">
          <mxGeometry width="140" height="60" as="geometry" />
        </mxCell>
        <mxCell id="fsGFzsNiL9sgcAbK3XRF-21" value="balance : int" style="text;strokeColor=none;fillColor=none;align=left;verticalAlign=middle;spacingLeft=4;spacingRight=4;overflow=hidden;points=[[0,0.5],[1,0.5]];portConstraint=eastwest;rotatable=0;whiteSpace=wrap;html=1;" vertex="1" parent="fsGFzsNiL9sgcAbK3XRF-20">
          <mxGeometry y="30" width="140" height="30" as="geometry" />
        </mxCell>
        <mxCell id="fsGFzsNiL9sgcAbK3XRF-24" value="" style="swimlane;startSize=0;" vertex="1" parent="fsGFzsNiL9sgcAbK3XRF-19">
          <mxGeometry y="60" width="140" height="30" as="geometry" />
        </mxCell>
        <mxCell id="fsGFzsNiL9sgcAbK3XRF-25" value="&lt;div&gt;+deposit&lt;/div&gt;" style="text;html=1;align=left;verticalAlign=middle;resizable=0;points=[];autosize=1;strokeColor=none;fillColor=none;" vertex="1" parent="fsGFzsNiL9sgcAbK3XRF-24">
          <mxGeometry width="70" height="30" as="geometry" />
        </mxCell>
        <mxCell id="fsGFzsNiL9sgcAbK3XRF-26" value="Account" style="swimlane;fontStyle=0;childLayout=stackLayout;horizontal=1;startSize=30;horizontalStack=0;resizeParent=1;resizeParentMax=0;resizeLast=0;collapsible=1;marginBottom=0;whiteSpace=wrap;html=1;" vertex="1" parent="1">
          <mxGeometry x="590" y="410" width="140" height="60" as="geometry">
            <mxRectangle x="590" y="410" width="80" height="30" as="alternateBounds" />
          </mxGeometry>
        </mxCell>
        <mxCell id="fsGFzsNiL9sgcAbK3XRF-27" value="account1: Account" style="text;strokeColor=none;fillColor=none;align=left;verticalAlign=middle;spacingLeft=4;spacingRight=4;overflow=hidden;points=[[0,0.5],[1,0.5]];portConstraint=eastwest;rotatable=0;whiteSpace=wrap;html=1;" vertex="1" parent="fsGFzsNiL9sgcAbK3XRF-26">
          <mxGeometry y="30" width="140" height="30" as="geometry" />
        </mxCell>
        <mxCell id="fsGFzsNiL9sgcAbK3XRF-28" value="" style="swimlane;startSize=0;" vertex="1" parent="1">
          <mxGeometry x="590" y="470" width="140" height="30" as="geometry" />
        </mxCell>
        <mxCell id="fsGFzsNiL9sgcAbK3XRF-29" value="+main" style="text;html=1;align=left;verticalAlign=middle;resizable=0;points=[];autosize=1;strokeColor=none;fillColor=none;" vertex="1" parent="fsGFzsNiL9sgcAbK3XRF-28">
          <mxGeometry width="60" height="30" as="geometry" />
        </mxCell>
        <mxCell id="fsGFzsNiL9sgcAbK3XRF-31" value="" style="endArrow=none;html=1;rounded=0;exitX=1;exitY=0.25;exitDx=0;exitDy=0;entryX=0;entryY=0.25;entryDx=0;entryDy=0;" edge="1" parent="1" source="fsGFzsNiL9sgcAbK3XRF-20" target="fsGFzsNiL9sgcAbK3XRF-26">
          <mxGeometry width="50" height="50" relative="1" as="geometry">
            <mxPoint x="350" y="630" as="sourcePoint" />
            <mxPoint x="400" y="580" as="targetPoint" />
          </mxGeometry>
        </mxCell>
      </root>
    </mxGraphModel>
  </diagram>
</mxfile>
